<?xml version="1.0" encoding="utf-8"?>
<!-- Generator: Adobe Illustrator 17.1.0, SVG Export Plug-In . SVG Version: 6.00 Build 0)  -->
<!DOCTYPE svg PUBLIC "-//W3C//DTD SVG 1.1//EN" "http://www.w3.org/Graphics/SVG/1.1/DTD/svg11.dtd">
<svg version="1.1" xmlns="http://www.w3.org/2000/svg" xmlns:xlink="http://www.w3.org/1999/xlink" x="0px" y="0px"
	 viewBox="0 0 425 100" enable-background="new 0 0 425 100" xml:space="preserve">
<g id="E">
	<polygon fill="#FFFFFF" stroke="#FFFFFF" stroke-miterlimit="10" points="147.1,48.6 148.4,40.7 126.1,40.7 127.7,30.9 151.9,30.9 
		153.3,22.8 119.6,22.8 112.3,68.6 147,68.6 148.4,60.4 123,60.4 124.9,48.6 	"/>
</g>
<g id="L">
	<path fill="#FFFFFF" stroke="#FFFFFF" stroke-miterlimit="10" d="M176.6,60.4h-14l6-37.6H159l-7.3,45.8h31.4
		c-0.9-0.5-1.7-1.1-2.4-1.7C179.1,65.6,177.5,63.4,176.6,60.4z"/>
</g>
<g id="T">
	<path fill="#FFFFFF" stroke="#FFFFFF" stroke-miterlimit="10" d="M263.1,22.9h-41.9c1.9,1.6,3.9,4.2,4.6,8.1h12.7l-6,37.6h9.6
		l6-37.6h13.7L263.1,22.9z"/>
</g>
<g id="O">
	<path fill="#FFFFFF" stroke="#FFFFFF" stroke-miterlimit="10" d="M344.6,27c-2.9-3.5-7.5-5.3-13.9-5.3c-6.4,0-11.6,1.8-15.6,5.3
		c-5.2,4.1-8.5,10.3-9.8,18.6c-1.3,8.1,0,14.3,3.8,18.6c2.9,3.5,7.5,5.3,13.9,5.3c6.4,0,11.6-1.8,15.6-5.3
		c5.2-4.3,8.5-10.5,9.8-18.6C349.8,37.3,348.5,31.1,344.6,27z M339.1,45.6c-0.8,5.1-2.5,9-5.2,11.7c-2.6,2.8-5.8,4.1-9.5,4.1
		c-3.7,0-6.5-1.4-8.3-4.1c-1.8-2.8-2.3-6.7-1.4-11.7c0.8-5.1,2.6-9,5.2-11.7c2.7-2.8,5.9-4.1,9.6-4.1c3.7,0,6.5,1.4,8.2,4.1
		C339.4,36.6,339.9,40.5,339.1,45.6z"/>
</g>
<g id="S">
	<path fill="#FFFFFF" stroke="#FFFFFF" stroke-miterlimit="10" d="M217.8,25.7c-3.1-2.5-7.1-3.7-12-3.7c-5.9,0-10.7,1.3-14.2,4
		c-3.5,2.6-5.6,5.9-6.3,9.9c-0.7,4.4,0.3,7.6,3.1,9.6c1.7,1.2,4.8,2.4,9.6,3.4l4.8,1.1c2.8,0.6,4.8,1.3,6,2.1
		c1.2,0.8,1.7,1.9,1.5,3.4c-0.4,2.5-2.1,4.2-5,5.2c-1.5,0.5-3.4,0.7-5.8,0.7c-3.9,0-6.4-0.9-7.7-2.7c-0.7-1-1-2.5-1-4.6h-9.4
		c-0.8,4.6,0.3,8.3,3.4,10.9c3.1,2.6,7.6,4,13.8,4c6,0,10.9-1.3,14.6-4c3.7-2.7,6-6.1,6.7-10.1c0.7-4-0.2-7-2.6-9.1
		c-1.6-1.3-4.1-2.4-7.5-3.2l-7.8-1.8c-3-0.7-4.9-1.3-5.8-1.8c-1.4-0.8-1.9-2-1.6-3.6c0.3-1.7,1.3-3.1,3-4c1.7-1,3.8-1.4,6.3-1.4
		c2.3,0,4.1,0.4,5.5,1.1c2.1,1.1,3,3,2.7,5.7h9.4C222,31.8,220.8,28.2,217.8,25.7z"/>
</g>
<g id="M_1_">
	<path fill="#FFFFFF" stroke="#FFFFFF" stroke-miterlimit="10" d="M396,59.2l5.8-36.3h-13.5l-14,35.9l-2.5-35.9h-13.9l-7.3,45.7h8.9
		l4.9-30.9c0.2-0.9,0.4-2.1,0.6-3.7c0.2-1.6,0.4-2.8,0.5-3.7l2.5,38.3h9.3L392,30.2c-0.1,0.9-0.3,2.1-0.6,3.7
		c-0.3,1.6-0.5,2.8-0.7,3.7l-4.9,30.9h12.4C395.8,66.8,395.2,64.6,396,59.2z"/>
</g>
<g id="R">
	<path fill="#FFFFFF" stroke="#FFFFFF" stroke-miterlimit="10" d="M299.8,42.3c1.4-2.1,2.3-4.2,2.7-6.4c0.3-1.8,0.2-3.4-0.1-4.8
		c-0.4-1.4-0.9-2.7-1.7-3.8c-1-1.4-2.3-2.5-3.9-3.2c-1.6-0.7-4-1.1-7.2-1.2h-22.4l-7.3,45.7h9.3l2.8-17.9h9.9c2.8,0,4.7,0.5,5.5,1.5
		c0.9,1,1.1,2.9,0.7,5.8l-0.4,5.2c-0.5,3.5,1.5,5.5,4.2,5.5h7.8c0,0,0,0-0.1,0h0.9c-2.7-1.8-3.9-4.7-3.1-9.5
		c0.2-0.9,0.3-1.6,0.3-1.6c0.5-3.2,0.5-5.6-0.2-7.1c-0.6-1.6-1.9-2.8-3.9-3.6C296.4,45.9,298.4,44.4,299.8,42.3z M289,42.4
		c-1.2,0.5-2.8,0.7-5,0.7h-10.8l2-12.3h11.1c2.1,0,3.6,0.3,4.5,0.8c1.7,1,2.3,2.8,1.9,5.6C292.3,39.8,291.1,41.5,289,42.4z"/>
</g>
<g id="A">
	<path fill="#FFFFFF" stroke="#FFFFFF" stroke-miterlimit="10" d="M99.4,22.9H86.2c1.2,1.8,0.3,4-0.4,5.5
		c-5.2,10.1-20.9,40.4-20.9,40.4h10l4.7-9.4h16.9l1.5,9.4h10.4L99.4,22.9z M83.4,51.4l8.8-18l2.8,18H83.4z"/>
</g>
<g id="M">
	<path fill="#FFFFFF" stroke="#FFFFFF" stroke-miterlimit="10" d="M54,22.9L40,58.9l-2.5-36H20.2c2.5,2,2.9,4.3,2,9.5
		c-1.4,9-5.8,36.3-5.8,36.3h8.6l4.9-31c0.2-0.9,0.4-2.1,0.6-3.7c0.2-1.6,0.4-2.8,0.5-3.7l2.5,38.5h9.3l14.8-38.5
		c-0.1,0.9-0.3,2.1-0.6,3.7c-0.3,1.6-0.5,2.9-0.7,3.7l-4.9,31h8.9l7.3-45.8H54z"/>
</g>
</svg>
