<?xml version="1.0" encoding="utf-8"?>
<!-- Generator: Adobe Illustrator 17.1.0, SVG Export Plug-In . SVG Version: 6.00 Build 0)  -->
<!DOCTYPE svg PUBLIC "-//W3C//DTD SVG 1.1//EN" "http://www.w3.org/Graphics/SVG/1.1/DTD/svg11.dtd">
<svg version="1.1" xmlns="http://www.w3.org/2000/svg" xmlns:xlink="http://www.w3.org/1999/xlink" x="0px" y="0px"
	 viewBox="0 0 387.4 50" enable-background="new 0 0 387.4 50" xml:space="preserve">
<g id="E">
</g>
<g id="L">
</g>
<g id="T">
</g>
<g id="O">
</g>
<g id="S">
</g>
<g id="M_1_">
</g>
<g id="R">
</g>
<g id="A">
</g>
<g id="M">
	<polygon fill="#FFFFFF" stroke="#FFFFFF" stroke-miterlimit="10" points="131.6,28 132.9,20.1 110.7,20.1 112.2,10.4 136.5,10.4 
		137.8,2.2 104.2,2.2 96.8,48.1 131.6,48.1 132.9,39.8 107.5,39.8 109.4,28 	"/>
	<path fill="#FFFFFF" stroke="#FFFFFF" stroke-miterlimit="10" d="M161.1,39.8h-14l6-37.6h-9.6l-7.3,45.8h31.4
		c-0.9-0.5-1.7-1.1-2.4-1.7C163.7,45,162,42.8,161.1,39.8z"/>
	<path fill="#FFFFFF" stroke="#FFFFFF" stroke-miterlimit="10" d="M247.6,2.3h-41.9c1.9,1.6,3.9,4.2,4.6,8.1H223L217,48h9.6l6-37.6
		h13.7L247.6,2.3z"/>
	<path fill="#FFFFFF" stroke="#FFFFFF" stroke-miterlimit="10" d="M329.2,6.4c-2.9-3.5-7.5-5.3-13.9-5.3c-6.4,0-11.6,1.8-15.6,5.3
		c-5.2,4.1-8.5,10.3-9.8,18.6c-1.3,8.1,0,14.3,3.8,18.6c2.9,3.5,7.5,5.3,13.9,5.3c6.4,0,11.6-1.8,15.6-5.3
		c5.2-4.3,8.5-10.5,9.8-18.6C334.3,16.7,333.1,10.6,329.2,6.4z M323.6,25c-0.8,5.1-2.5,9-5.2,11.7c-2.6,2.8-5.8,4.1-9.5,4.1
		c-3.7,0-6.5-1.4-8.3-4.1c-1.8-2.8-2.3-6.7-1.4-11.7c0.8-5.1,2.6-9,5.2-11.7c2.7-2.8,5.9-4.1,9.6-4.1c3.7,0,6.5,1.4,8.2,4.1
		C323.9,16,324.4,19.9,323.6,25z"/>
	<path fill="#FFFFFF" stroke="#FFFFFF" stroke-miterlimit="10" d="M202.3,5.1c-3.1-2.5-7.1-3.7-12-3.7c-5.9,0-10.7,1.3-14.2,4
		c-3.5,2.6-5.6,5.9-6.3,9.9c-0.7,4.4,0.3,7.6,3.1,9.6c1.7,1.2,4.8,2.4,9.6,3.4l4.8,1.1c2.8,0.6,4.8,1.3,6,2.1
		c1.2,0.8,1.7,1.9,1.5,3.4c-0.4,2.5-2.1,4.2-5,5.2c-1.5,0.5-3.4,0.7-5.8,0.7c-3.9,0-6.4-0.9-7.7-2.7c-0.7-1-1-2.5-1-4.6h-9.4
		c-0.8,4.6,0.3,8.3,3.4,10.9c3.1,2.6,7.6,4,13.8,4c6,0,10.9-1.3,14.6-4c3.7-2.7,6-6.1,6.7-10.1c0.7-4-0.2-7-2.6-9.1
		c-1.6-1.3-4.1-2.4-7.5-3.2l-7.8-1.8c-3-0.7-4.9-1.3-5.8-1.8c-1.4-0.8-1.9-2-1.6-3.6c0.3-1.7,1.3-3.1,3-4c1.7-1,3.8-1.4,6.3-1.4
		c2.3,0,4.1,0.4,5.5,1.1c2.1,1.1,3,3,2.7,5.7h9.4C206.6,11.2,205.4,7.6,202.3,5.1z"/>
	<path fill="#FFFFFF" stroke="#FFFFFF" stroke-miterlimit="10" d="M380.5,38.6l5.8-36.3h-13.5l-14,35.9l-2.5-35.9h-13.9L335.1,48
		h8.9l4.9-30.9c0.2-0.9,0.4-2.1,0.6-3.7c0.2-1.6,0.4-2.8,0.5-3.7l2.5,38.3h9.3l14.8-38.3c-0.1,0.9-0.3,2.1-0.6,3.7
		c-0.3,1.6-0.5,2.8-0.7,3.7L370.4,48h12.4C380.3,46.2,379.7,44,380.5,38.6z"/>
	<path fill="#FFFFFF" stroke="#FFFFFF" stroke-miterlimit="10" d="M284.4,21.7c1.4-2.1,2.3-4.2,2.7-6.4c0.3-1.8,0.2-3.4-0.1-4.8
		c-0.4-1.4-0.9-2.7-1.7-3.8c-1-1.4-2.3-2.5-3.9-3.2c-1.6-0.7-4-1.1-7.2-1.2h-22.4L244.4,48h9.3l2.8-17.9h9.9c2.8,0,4.7,0.5,5.5,1.5
		c0.9,1,1.1,2.9,0.7,5.8l-0.4,5.2c-0.5,3.5,1.5,5.5,4.2,5.5h7.8c0,0,0,0-0.1,0h0.9c-2.7-1.8-3.9-4.7-3.1-9.5
		c0.2-0.9,0.3-1.6,0.3-1.6c0.5-3.2,0.5-5.6-0.2-7.1c-0.6-1.6-1.9-2.8-3.9-3.6C280.9,25.3,282.9,23.8,284.4,21.7z M273.6,21.8
		c-1.2,0.5-2.8,0.7-5,0.7h-10.8l2-12.3h11.1c2.1,0,3.6,0.3,4.5,0.8c1.7,1,2.3,2.8,1.9,5.6C276.8,19.2,275.6,20.9,273.6,21.8z"/>
	<path fill="#FFFFFF" stroke="#FFFFFF" stroke-miterlimit="10" d="M83.9,2.3H70.7c1.2,1.8,0.3,4-0.4,5.5
		C65,17.8,49.4,48.1,49.4,48.1h10l4.7-9.4H81l1.5,9.4h10.4L83.9,2.3z M67.9,30.8l8.8-18l2.8,18H67.9z"/>
	<path fill="#FFFFFF" stroke="#FFFFFF" stroke-miterlimit="10" d="M38.6,2.3l-14.1,36L22,2.3H4.8c2.5,2,2.9,4.3,2,9.5
		C5.4,20.8,1,48.1,1,48.1h8.6l4.9-31c0.2-0.9,0.4-2.1,0.6-3.7c0.2-1.6,0.4-2.8,0.5-3.7l2.5,38.5h9.3L42.3,9.7
		c-0.1,0.9-0.3,2.1-0.6,3.7c-0.3,1.6-0.5,2.9-0.7,3.7l-4.9,31H45l7.3-45.8H38.6z"/>
</g>
</svg>
